<svg width="50" height="751" viewBox="0 0 50 751" fill="none" xmlns="http://www.w3.org/2000/svg">
<g clip-path="url(#clip0_5_201)">
<path fill-rule="evenodd" clip-rule="evenodd" d="M5 0C2.23858 0 0 2.23858 0 5V45C0 47.7614 2.23858 50 5 50H45C47.7614 50 50 47.7614 50 45V5C50 2.23858 47.7614 0 45 0H5ZM7.97888 26.7739L24.9336 9.81924L42.0214 26.8849L35.497 26.8627V40.1779H29.2832V30.1249H20.7171V40.1779H14.5033V26.7961L7.97888 26.7739Z" fill="#EFF3F6"/>
<path d="M1.00009e-07 125C0.000593107 131.63 2.63478 137.988 7.32312 142.676C12.0115 147.364 18.37 149.998 25 149.998C31.63 149.998 37.9885 147.364 42.6769 142.676C47.3652 137.988 49.9994 131.63 50 125C50.0003 121.717 49.3539 118.466 48.0976 115.432C46.8414 112.399 45 109.643 42.6785 107.321C40.357 104.999 37.6009 103.158 34.5676 101.901C31.5343 100.645 28.2832 99.998 25 99.998C21.7168 99.998 18.4657 100.645 15.4324 101.901C12.3991 103.158 9.64303 104.999 7.32154 107.321C5.00005 109.643 3.15861 112.399 1.90237 115.432C0.646134 118.466 -0.000293561 121.717 1.00009e-07 125V125Z" fill="#E0ECEC"/>
<path d="M15.7654 111.515C14.4492 111.515 13.3767 112.48 13.3767 113.682V136.313C13.3767 137.514 14.4492 138.48 15.7654 138.48H34.2592C35.5754 138.48 36.6233 137.953 36.6233 136.752C36.6233 136.252 36.0722 135.883 35.5071 135.894H18.1787C17.3775 135.894 16.7504 135.279 16.7504 134.539V134.219C16.7504 133.48 17.3775 132.89 18.1787 132.89H35.7266C36.2678 132.89 36.6233 132.523 36.6233 131.946V113.682C36.6233 112.48 35.5754 111.515 34.2592 111.515H26.6991V122.768L23.1284 119.222L19.5824 122.768V111.515H15.7654V111.515Z" fill="#434E52"/>
<path d="M0.00012227 225C-0.00029304 228.284 0.646045 231.535 1.90223 234.568C3.15841 237.602 4.99983 240.358 7.32133 242.68C9.64284 245.002 12.399 246.844 15.4323 248.1C18.4657 249.357 21.7168 250.004 25.0001 250.004C28.2834 250.004 31.5346 249.357 34.5679 248.1C37.6013 246.844 40.3574 245.002 42.6789 242.68C45.0004 240.358 46.8418 237.602 48.098 234.568C49.3542 231.535 50.0005 228.284 50.0001 225C50.0005 221.717 49.3542 218.466 48.098 215.432C46.8418 212.399 45.0004 209.642 42.6789 207.321C40.3574 204.999 37.6013 203.157 34.5679 201.901C31.5346 200.644 28.2834 199.997 25.0001 199.997C21.7168 199.997 18.4657 200.644 15.4323 201.901C12.399 203.157 9.64284 204.999 7.32133 207.321C4.99983 209.642 3.15841 212.399 1.90223 215.432C0.646045 218.466 -0.00029304 221.717 0.00012227 225V225Z" fill="#E0ECEC"/>
<path d="M16.6681 210.037C16.3792 210.059 16.1012 210.111 15.8128 210.171L19.7953 214.18C20.4054 214.791 20.4384 215.728 19.8754 216.292L16.2671 219.873C15.7042 220.436 14.7924 220.43 14.1823 219.82L10.1731 215.81C9.69499 218.119 10.3872 220.621 12.1777 222.412C14.2824 224.518 17.331 225.025 19.9289 223.989C20.0572 224.237 20.2491 224.443 20.4635 224.658L21.4791 225.7L22.6017 224.577L21.2653 223.241C20.9287 222.904 21.0147 222.289 21.4524 221.851L24.2856 219.018C24.8847 216.643 24.2779 214.04 22.4146 212.175C21.0718 210.832 19.3114 210.109 17.5501 210.037C17.2565 210.025 16.9569 210.016 16.668 210.037L16.6681 210.037ZM35.2442 210.037L22.4414 222.84L24.1787 224.577L12.5787 236.151L12.0174 236.391C11.597 236.574 11.1122 237.122 10.8948 237.621L10.1197 239.331C9.90224 239.83 10.0736 240.102 10.4939 239.919L12.4985 239.037C12.9188 238.854 13.4304 238.306 13.6478 237.808L13.8616 237.38L25.4082 225.807L27.1456 227.544L39.9751 214.741L35.2442 210.037ZM30.4599 226.235L28.1612 228.533C27.7236 228.971 27.0813 229.057 26.7446 228.72L25.3815 227.357L24.2589 228.48L34.9502 239.171C35.8685 240.09 37.2008 240.235 37.9438 239.492L39.494 237.941C40.237 237.198 40.0915 235.867 39.1733 234.948L30.4599 226.235Z" fill="#434E52"/>
<path d="M0.00012227 325.001C-0.00029304 328.284 0.646045 331.535 1.90223 334.569C3.15841 337.602 4.99983 340.359 7.32133 342.68C9.64284 345.002 12.399 346.844 15.4323 348.1C18.4657 349.357 21.7168 350.004 25.0001 350.004C28.2834 350.004 31.5346 349.357 34.5679 348.1C37.6013 346.844 40.3574 345.002 42.6789 342.68C45.0004 340.359 46.8418 337.602 48.098 334.569C49.3542 331.535 50.0005 328.284 50.0001 325.001C50.0005 321.717 49.3542 318.466 48.098 315.433C46.8418 312.399 45.0004 309.643 42.6789 307.321C40.3574 304.999 37.6013 303.157 34.5679 301.901C31.5346 300.644 28.2834 299.997 25.0001 299.997C21.7168 299.997 18.4657 300.644 15.4323 301.901C12.399 303.157 9.64284 304.999 7.32133 307.321C4.99983 309.643 3.15841 312.399 1.90223 315.433C0.646045 318.466 -0.00029304 321.717 0.00012227 325.001V325.001Z" fill="#E0ECEC"/>
<path d="M11.658 331.058L9.69811 339.597C9.58017 340.112 9.90993 340.417 10.4331 340.297L18.9199 338.355L11.658 331.058ZM12.4804 330.235L19.7599 337.515L35.7011 321.573L28.4217 314.294L12.4804 330.235ZM29.5591 313.157L36.8386 320.436L40.0583 317.216C40.3977 316.877 40.4198 316.353 40.0933 316.026L33.9863 309.919C33.6598 309.593 33.1182 309.597 32.7789 309.937L29.5591 313.157H29.5591Z" fill="#434E52"/>
<path d="M50.0001 425.013C49.9969 431.641 47.3615 437.997 42.6735 442.683C37.9854 447.369 31.6284 450.001 25.0001 450.001C18.3718 450.001 12.0148 447.369 7.32678 442.683C2.63872 437.997 0.00337226 431.641 0.000125071 425.013C-0.00148379 421.729 0.643968 418.477 1.89962 415.442C3.15526 412.408 4.99649 409.65 7.31812 407.327C9.63974 405.005 12.3963 403.162 15.4302 401.905C18.4641 400.648 21.716 400.001 25.0001 400.001C28.2842 400.001 31.5361 400.648 34.57 401.905C37.604 403.162 40.3605 405.005 42.6821 407.327C45.0037 409.65 46.845 412.408 48.1006 415.442C49.3563 418.477 50.0017 421.729 50.0001 425.013V425.013Z" fill="#434E52"/>
<path d="M24.9336 409.832L7.97888 426.787L14.5033 426.809V440.191H20.7171V430.138H29.2832V440.191H35.497V426.876L42.0214 426.898L24.9336 409.832V409.832Z" fill="#E0ECEC"/>
<path d="M2.00017e-06 525.013C0.00265347 531.642 2.63775 537.998 7.32587 542.684C12.014 547.371 18.3713 550.003 25 550.003C31.6287 550.003 37.986 547.371 42.6741 542.684C47.3623 537.998 49.9974 531.642 50 525.013C50.0013 521.729 49.3556 518.477 48.0999 515.443C46.8441 512.409 45.0028 509.652 42.6812 507.329C40.3596 505.007 37.6032 503.164 34.5694 501.907C31.5356 500.65 28.2839 500.003 25 500.003C21.7161 500.003 18.4644 500.65 15.4306 501.907C12.3968 503.164 9.64039 505.007 7.3188 507.329C4.9972 509.652 3.15593 512.409 1.90015 515.443C0.644369 518.477 -0.00131156 521.729 2.00017e-06 525.013V525.013Z" fill="#434E52"/>
<path d="M15.7654 511.528C14.4492 511.528 13.3767 512.493 13.3767 513.695V536.326C13.3767 537.527 14.4492 538.493 15.7654 538.493H34.2592C35.5754 538.493 36.6233 537.966 36.6233 536.765C36.6233 536.265 36.0722 535.896 35.5071 535.907H18.1787C17.3775 535.907 16.7504 535.292 16.7504 534.553V534.232C16.7504 533.493 17.3775 532.903 18.1787 532.903H35.7266C36.2678 532.903 36.6233 532.536 36.6233 531.959V513.695C36.6233 512.493 35.5754 511.528 34.2592 511.528H26.6991V522.781L23.1284 519.235L19.5823 522.781V511.528H15.7654V511.528Z" fill="#E0ECEC"/>
<path d="M5.00043e-07 625.013C-0.000656193 628.297 0.645508 631.548 1.90158 634.582C3.15765 637.616 4.99903 640.372 7.32056 642.694C9.64209 645.016 12.3983 646.858 15.4318 648.115C18.4652 649.372 21.7165 650.018 25 650.018C28.2835 650.018 31.5348 649.372 34.5682 648.115C37.6017 646.858 40.3579 645.016 42.6794 642.694C45.001 640.372 46.8424 637.616 48.0984 634.582C49.3545 631.548 50.0007 628.297 50 625.013C50 618.383 47.3661 612.024 42.6777 607.336C37.9893 602.647 31.6304 600.013 25 600.013C18.3696 600.013 12.0107 602.647 7.32233 607.336C2.63393 612.024 5.00043e-07 618.383 5.00043e-07 625.013V625.013Z" fill="#434E52"/>
<path d="M16.668 610.05C16.3791 610.072 16.101 610.124 15.8127 610.184L19.7952 614.193C20.4053 614.804 20.4383 615.741 19.8753 616.305L16.267 619.886C15.7041 620.449 14.7923 620.443 14.1822 619.833L10.1729 615.823C9.69483 618.132 10.3871 620.634 12.1775 622.425C14.2823 624.531 17.3308 625.038 19.9287 624.002C20.057 624.25 20.2489 624.456 20.4633 624.671L21.479 625.713L22.6016 624.59L21.2652 623.254C20.9285 622.917 21.0146 622.302 21.4522 621.864L24.2854 619.031C24.8845 616.656 24.2774 614.053 22.4145 612.188C21.0716 610.845 19.3113 610.122 17.5499 610.05C17.2564 610.038 16.9567 610.029 16.6679 610.05L16.668 610.05ZM35.2441 610.05L22.4413 622.853L24.1786 624.59L12.5785 636.164L12.0173 636.404C11.5969 636.587 11.1121 637.135 10.8947 637.634L10.1195 639.344C9.90212 639.843 10.0734 640.115 10.4937 639.932L12.4984 639.05C12.9187 638.867 13.4303 638.319 13.6477 637.821L13.8615 637.393L25.4081 625.82L27.1455 627.557L39.975 614.754L35.2441 610.05ZM30.4597 626.248L28.1611 628.546C27.7234 628.984 27.0812 629.07 26.7445 628.733L25.3814 627.37L24.2588 628.493L34.9501 639.184C35.8684 640.103 37.2007 640.248 37.9437 639.505L39.4939 637.955C40.2369 637.211 40.0914 635.88 39.1732 634.961L30.4597 626.248Z" fill="#E0ECEC"/>
<path d="M5.00043e-07 725.014C-0.000656193 728.297 0.645508 731.549 1.90158 734.582C3.15765 737.616 4.99903 740.373 7.32056 742.695C9.64209 745.017 12.3983 746.858 15.4318 748.115C18.4652 749.372 21.7165 750.019 25 750.019C28.2835 750.019 31.5348 749.372 34.5682 748.115C37.6017 746.858 40.3579 745.017 42.6794 742.695C45.001 740.373 46.8424 737.616 48.0984 734.582C49.3545 731.549 50.0007 728.297 50 725.014C50 718.383 47.3661 712.024 42.6777 707.336C37.9893 702.648 31.6304 700.014 25 700.014C18.3696 700.014 12.0107 702.648 7.32233 707.336C2.63393 712.024 5.00043e-07 718.383 5.00043e-07 725.014V725.014Z" fill="#434E52"/>
<path d="M11.6578 731.071L9.69799 739.61C9.58006 740.125 9.90981 740.43 10.4329 740.31L18.9198 738.368L11.6578 731.071ZM12.4803 730.248L19.7597 737.528L35.701 721.586L28.4216 714.307L12.4803 730.248ZM29.559 713.17L36.8384 720.449L40.0582 717.229C40.3976 716.89 40.4197 716.366 40.0932 716.039L33.9862 709.932C33.6597 709.606 33.1181 709.61 32.7788 709.95L29.559 713.17H29.559Z" fill="#E0ECEC"/>
</g>
<defs>
<clipPath id="clip0_5_201">
<rect width="50.0001" height="750.014" fill="white"/>
</clipPath>
</defs>
</svg>
