<svg width="20" height="60" viewBox="0 0 20 60" fill="none" xmlns="http://www.w3.org/2000/svg">
<g clip-path="url(#clip0_2_20)">
<path fill-rule="evenodd" clip-rule="evenodd" d="M10 60C15.5228 60 20 55.5228 20 50C20 44.4772 15.5228 40 10 40C4.47715 40 0 44.4772 0 50C0 55.5228 4.47715 60 10 60ZM3.92259 46.9107C3.59715 46.5853 3.06951 46.5853 2.74408 46.9107C2.41864 47.2362 2.41864 47.7638 2.74408 48.0893L9.41074 54.7559C9.73618 55.0814 10.2638 55.0814 10.5893 54.7559L17.2559 48.0893C17.5814 47.7638 17.5814 47.2362 17.2559 46.9107C16.9305 46.5853 16.4028 46.5853 16.0774 46.9107L10 52.9882L3.92259 46.9107Z" fill="#049FE7"/>
<g clip-path="url(#clip1_2_20)">
<path fill-rule="evenodd" clip-rule="evenodd" d="M10 -8.74228e-07C4.47715 -1.35705e-06 1.35705e-06 4.47715 8.74228e-07 10C3.91405e-07 15.5228 4.47715 20 10 20C15.5228 20 20 15.5228 20 10C20 4.47715 15.5228 -3.91405e-07 10 -8.74228e-07ZM16.0774 13.0893C16.4028 13.4147 16.9305 13.4147 17.2559 13.0893C17.5814 12.7638 17.5814 12.2362 17.2559 11.9107L10.5893 5.24408C10.2638 4.91864 9.73618 4.91864 9.41075 5.24408L2.74408 11.9107C2.41864 12.2362 2.41864 12.7638 2.74408 13.0893C3.06952 13.4147 3.59715 13.4147 3.92259 13.0893L10 7.01184L16.0774 13.0893Z" fill="#049FE7"/>
</g>
</g>
<defs>
<clipPath id="clip0_2_20">
<rect width="20" height="60.0002" fill="white"/>
</clipPath>
<clipPath id="clip1_2_20">
<rect width="20" height="20" fill="white" transform="translate(20 20) rotate(-180)"/>
</clipPath>
</defs>
</svg>
